<?xml version="1.0" encoding="utf-8" standalone="no"?>
<!DOCTYPE svg PUBLIC "-//W3C//DTD SVG 1.1//EN"
  "http://www.w3.org/Graphics/SVG/1.1/DTD/svg11.dtd">
<!-- Created with matplotlib (http://matplotlib.sourceforge.net/) -->
<svg height="288pt" version="1.1" viewBox="0 0 432 288" width="432pt" xmlns="http://www.w3.org/2000/svg" xmlns:xlink="http://www.w3.org/1999/xlink">
 <defs>
  <style type="text/css">
*{stroke-linecap:square;stroke-linejoin:round;}
  </style>
 </defs>
 <g id="figure_1">
  <g id="patch_1">
   <path d="
M0 288
L432 288
L432 0
L0 0
z
" style="fill:#ffffff;"/>
  </g>
  <g id="axes_1">
   <g id="patch_2">
    <path d="
M54 252
L388.8 252
L388.8 28.8
L54 28.8
z
" style="fill:#eeeeee;"/>
   </g>
   <g id="matplotlib.axis_1">
    <g id="xtick_1">
     <g id="line2d_1">
      <path clip-path="url(#p124b8dd147)" d="
M54 252
L54 28.8" style="fill:none;stroke:#000000;stroke-dasharray:1.000000,3.000000;stroke-dashoffset:0.0;stroke-linecap:butt;stroke-width:0.5;"/>
     </g>
     <g id="line2d_2">
      <defs>
       <path d="
M0 0
L0 0" id="md8e084be14" style="stroke:#555555;stroke-linecap:butt;stroke-width:0.5;"/>
      </defs>
      <g>
       <use style="fill:#555555;stroke:#555555;stroke-linecap:butt;stroke-width:0.5;" x="54.0" xlink:href="#md8e084be14" y="252.0"/>
      </g>
     </g>
     <g id="line2d_3">
      <g>
       <use style="fill:#555555;stroke:#555555;stroke-linecap:butt;stroke-width:0.5;" x="54.0" xlink:href="#md8e084be14" y="28.8"/>
      </g>
     </g>
     <g id="text_1">
      <!-- 0 -->
      <defs>
       <path d="
M29.8906 70.2188
Q40.8281 70.2188 46.7031 60.8125
Q52.5938 51.4219 52.5938 34.4219
Q52.5938 17.9688 46.875 8.32812
Q41.1562 -1.3125 29.8906 -1.3125
Q19 -1.3125 13.0781 8.0625
Q7.17188 17.4375 7.17188 34.4219
Q7.17188 50.9219 12.9062 60.5625
Q18.6562 70.2188 29.8906 70.2188
M29.8906 5.71875
Q37.1094 5.71875 40.5938 12.5781
Q44.0938 19.4375 44.0938 34.4219
Q44.0938 49.4688 40.5938 56.2812
Q37.1094 63.0938 29.8906 63.0938
Q22.75 63.0938 19.2344 56.1094
Q15.7188 49.125 15.7188 34.4219
Q15.7188 19.5312 19.2031 12.625
Q22.7031 5.71875 29.8906 5.71875
M29.6875 41.75
Q32.7656 41.75 34.8906 39.625
Q37.0156 37.5 37.0156 34.4219
Q37.0156 31.25 34.8594 28.9688
Q32.7188 26.7031 29.6875 26.7031
Q26.7031 26.7031 24.5781 28.9688
Q22.4688 31.25 22.4688 34.4219
Q22.4688 37.5469 24.5312 39.6406
Q26.6094 41.75 29.6875 41.75" id="AndaleMono-30"/>
      </defs>
      <g style="fill:#555555;" transform="translate(51.72890625 265.021875)scale(0.1 -0.1)">
       <use xlink:href="#AndaleMono-30"/>
      </g>
     </g>
    </g>
    <g id="xtick_2">
     <g id="line2d_4">
      <path clip-path="url(#p124b8dd147)" d="
M120.96 252
L120.96 28.8" style="fill:none;stroke:#000000;stroke-dasharray:1.000000,3.000000;stroke-dashoffset:0.0;stroke-linecap:butt;stroke-width:0.5;"/>
     </g>
     <g id="line2d_5">
      <g>
       <use style="fill:#555555;stroke:#555555;stroke-linecap:butt;stroke-width:0.5;" x="120.96" xlink:href="#md8e084be14" y="252.0"/>
      </g>
     </g>
     <g id="line2d_6">
      <g>
       <use style="fill:#555555;stroke:#555555;stroke-linecap:butt;stroke-width:0.5;" x="120.96" xlink:href="#md8e084be14" y="28.8"/>
      </g>
     </g>
     <g id="text_2">
      <!-- 100 -->
      <defs>
       <path d="
M49.7031 0
L13.4844 0
L13.4844 6.98438
L28.0781 6.98438
L28.0781 60.5
L14.3125 53.6094
L14.3125 61.625
L29.2031 69.2812
L36.0781 69.2812
L36.0781 6.98438
L49.7031 6.98438
z
" id="AndaleMono-31"/>
      </defs>
      <g style="fill:#555555;" transform="translate(113.00296875 265.021875)scale(0.1 -0.1)">
       <use xlink:href="#AndaleMono-31"/>
       <use x="60.009765625" xlink:href="#AndaleMono-30"/>
       <use x="120.01953125" xlink:href="#AndaleMono-30"/>
      </g>
     </g>
    </g>
    <g id="xtick_3">
     <g id="line2d_7">
      <path clip-path="url(#p124b8dd147)" d="
M187.92 252
L187.92 28.8" style="fill:none;stroke:#000000;stroke-dasharray:1.000000,3.000000;stroke-dashoffset:0.0;stroke-linecap:butt;stroke-width:0.5;"/>
     </g>
     <g id="line2d_8">
      <g>
       <use style="fill:#555555;stroke:#555555;stroke-linecap:butt;stroke-width:0.5;" x="187.92" xlink:href="#md8e084be14" y="252.0"/>
      </g>
     </g>
     <g id="line2d_9">
      <g>
       <use style="fill:#555555;stroke:#555555;stroke-linecap:butt;stroke-width:0.5;" x="187.92" xlink:href="#md8e084be14" y="28.8"/>
      </g>
     </g>
     <g id="text_3">
      <!-- 200 -->
      <defs>
       <path d="
M47.9062 0
L10.0156 0
L10.0156 5.8125
Q24.4219 21.875 28.7188 27.3438
Q33.0156 32.8125 35.6875 38.8125
Q38.375 44.8281 38.375 50.7812
Q38.375 56.5469 34.875 59.8594
Q31.3906 63.1875 25.0938 63.1875
Q20.2656 63.1875 12.1094 60.2031
L10.9844 67.0938
Q18.3594 70.2188 26.4219 70.2188
Q35.6406 70.2188 41.2812 65.0156
Q46.9219 59.8125 46.9219 51.125
Q46.9219 44.9219 44.0156 38.8125
Q41.1094 32.7188 36.5625 27.0938
Q32.0312 21.4844 18.8906 6.98438
L47.9062 6.98438
z
" id="AndaleMono-32"/>
      </defs>
      <g style="fill:#555555;" transform="translate(179.78953125 265.021875)scale(0.1 -0.1)">
       <use xlink:href="#AndaleMono-32"/>
       <use x="60.009765625" xlink:href="#AndaleMono-30"/>
       <use x="120.01953125" xlink:href="#AndaleMono-30"/>
      </g>
     </g>
    </g>
    <g id="xtick_4">
     <g id="line2d_10">
      <path clip-path="url(#p124b8dd147)" d="
M254.88 252
L254.88 28.8" style="fill:none;stroke:#000000;stroke-dasharray:1.000000,3.000000;stroke-dashoffset:0.0;stroke-linecap:butt;stroke-width:0.5;"/>
     </g>
     <g id="line2d_11">
      <g>
       <use style="fill:#555555;stroke:#555555;stroke-linecap:butt;stroke-width:0.5;" x="254.88" xlink:href="#md8e084be14" y="252.0"/>
      </g>
     </g>
     <g id="line2d_12">
      <g>
       <use style="fill:#555555;stroke:#555555;stroke-linecap:butt;stroke-width:0.5;" x="254.88" xlink:href="#md8e084be14" y="28.8"/>
      </g>
     </g>
     <g id="text_4">
      <!-- 300 -->
      <defs>
       <path d="
M34.2812 37.0156
Q40.5781 35.25 44.375 30.5781
Q48.1875 25.9219 48.1875 20.125
Q48.1875 11.0312 41.1094 4.85938
Q34.0312 -1.3125 24.4219 -1.3125
Q16.2188 -1.3125 9.71875 2.29688
L11.2812 8.89062
Q18.0625 5.71875 24.7031 5.71875
Q30.9531 5.71875 35.375 9.59375
Q39.7969 13.4844 39.7969 19.5781
Q39.7969 25.5938 35.0625 29.3438
Q30.3281 33.1094 22.5156 33.1094
L20.4062 33.1094
L20.4062 39.7031
L21 39.7031
Q28.5156 39.7031 33.3906 43.2344
Q38.2812 46.7812 38.2812 52.7812
Q38.2812 57.6719 34.7656 60.4219
Q31.25 63.1875 25.0938 63.1875
Q19.7812 63.1875 13.1875 60.2969
L12.1094 67.1875
Q18.75 70.2188 25.4844 70.2188
Q34.7188 70.2188 40.7031 65.3594
Q46.6875 60.5 46.6875 52.875
Q46.6875 47.6094 43.0469 43.0469
Q39.4062 38.4844 34.2812 37.3125
z
" id="AndaleMono-33"/>
      </defs>
      <g style="fill:#555555;" transform="translate(246.7346875 265.021875)scale(0.1 -0.1)">
       <use xlink:href="#AndaleMono-33"/>
       <use x="60.009765625" xlink:href="#AndaleMono-30"/>
       <use x="120.01953125" xlink:href="#AndaleMono-30"/>
      </g>
     </g>
    </g>
    <g id="xtick_5">
     <g id="line2d_13">
      <path clip-path="url(#p124b8dd147)" d="
M321.84 252
L321.84 28.8" style="fill:none;stroke:#000000;stroke-dasharray:1.000000,3.000000;stroke-dashoffset:0.0;stroke-linecap:butt;stroke-width:0.5;"/>
     </g>
     <g id="line2d_14">
      <g>
       <use style="fill:#555555;stroke:#555555;stroke-linecap:butt;stroke-width:0.5;" x="321.84" xlink:href="#md8e084be14" y="252.0"/>
      </g>
     </g>
     <g id="line2d_15">
      <g>
       <use style="fill:#555555;stroke:#555555;stroke-linecap:butt;stroke-width:0.5;" x="321.84" xlink:href="#md8e084be14" y="28.8"/>
      </g>
     </g>
     <g id="text_5">
      <!-- 400 -->
      <defs>
       <path d="
M52.3906 15.9219
L43.8906 15.9219
L43.8906 0
L35.8906 0
L35.8906 15.9219
L5.90625 15.9219
L5.90625 22.0156
L33.1094 68.8906
L43.8906 68.8906
L43.8906 22.9062
L52.3906 22.9062
z

M35.8906 22.9062
L35.8906 60.9844
L14.0156 22.9062
z
" id="AndaleMono-34"/>
      </defs>
      <g style="fill:#555555;" transform="translate(313.5040625 265.021875)scale(0.1 -0.1)">
       <use xlink:href="#AndaleMono-34"/>
       <use x="60.009765625" xlink:href="#AndaleMono-30"/>
       <use x="120.01953125" xlink:href="#AndaleMono-30"/>
      </g>
     </g>
    </g>
    <g id="xtick_6">
     <g id="line2d_16">
      <path clip-path="url(#p124b8dd147)" d="
M388.8 252
L388.8 28.8" style="fill:none;stroke:#000000;stroke-dasharray:1.000000,3.000000;stroke-dashoffset:0.0;stroke-linecap:butt;stroke-width:0.5;"/>
     </g>
     <g id="line2d_17">
      <g>
       <use style="fill:#555555;stroke:#555555;stroke-linecap:butt;stroke-width:0.5;" x="388.8" xlink:href="#md8e084be14" y="252.0"/>
      </g>
     </g>
     <g id="line2d_18">
      <g>
       <use style="fill:#555555;stroke:#555555;stroke-linecap:butt;stroke-width:0.5;" x="388.8" xlink:href="#md8e084be14" y="28.8"/>
      </g>
     </g>
     <g id="text_6">
      <!-- 500 -->
      <defs>
       <path d="
M21.1875 41.1094
Q24.5156 42 27.6875 42
Q37.4531 42 43.1094 36.0156
Q48.7812 30.0312 48.7812 21.0938
Q48.7812 11.7188 42.1875 5.20312
Q35.5938 -1.3125 26.125 -1.3125
Q17.0938 -1.3125 10.9844 1.70312
L12.5938 8.5
Q19.2344 5.71875 26.3125 5.71875
Q32.625 5.71875 36.5 9.76562
Q40.375 13.8125 40.375 21.0938
Q40.375 27.9844 36.7188 31.6875
Q33.0625 35.4062 27.2969 35.4062
Q23.0938 35.4062 19 33.7969
L14.2031 35.9844
L14.2031 68.8906
L45.7031 68.8906
L45.7031 61.9219
L21.1875 61.9219
z
" id="AndaleMono-35"/>
      </defs>
      <g style="fill:#555555;" transform="translate(380.71796875 265.021875)scale(0.1 -0.1)">
       <use xlink:href="#AndaleMono-35"/>
       <use x="60.009765625" xlink:href="#AndaleMono-30"/>
       <use x="120.01953125" xlink:href="#AndaleMono-30"/>
      </g>
     </g>
    </g>
    <g id="text_7">
     <!-- Response time (ms) -->
     <defs>
      <path d="
M18.1094 44.2812
Q20.6562 47.7969 24.9688 49.9375
Q29.2969 52.0938 34.0781 52.0938
Q42.875 52.0938 47.875 44.8438
Q52.875 37.5938 52.875 25.9844
Q52.875 14.2656 47.625 6.46875
Q42.3906 -1.3125 33.5 -1.3125
Q28.7656 -1.3125 24.6406 1.04688
Q20.5156 3.42188 18.1094 7.32812
L18.1094 -20.125
L10.5 -20.125
L10.5 50.875
L18.1094 50.875
z

M18.1094 36.7188
L18.1094 15.5781
Q20.2656 11.2812 23.9219 8.39062
Q27.5938 5.51562 31.5 5.51562
Q37.6406 5.51562 41.2812 11.2812
Q44.9219 17.0469 44.9219 25.5938
Q44.9219 34.375 41.4531 39.9375
Q37.9844 45.5156 31.7812 45.5156
Q23.7344 45.5156 18.1094 36.7188" id="AndaleMono-70"/>
      <path d="
M44.3906 43.6094
Q37.9844 45.7031 32.3281 45.7031
Q26.125 45.7031 22.5 43.625
Q18.8906 41.5469 18.8906 38.0938
Q18.8906 35.8906 20.5469 34.25
Q22.2188 32.625 27.2031 31.2031
L34.4688 29.1094
Q39.5 27.6875 42.6719 25.7031
Q45.8438 23.7344 47.4375 20.9219
Q49.0312 18.1094 49.0312 14.4062
Q49.0312 7.125 42.9219 2.90625
Q36.8125 -1.3125 27.3906 -1.3125
Q18.0156 -1.3125 11.9219 1.51562
L13.375 8.10938
Q19.7812 5.07812 27.0938 5.07812
Q33.4531 5.07812 37.4219 7.4375
Q41.4062 9.8125 41.4062 13.7188
Q41.4062 16.3594 39.4219 18.4375
Q37.4531 20.5156 30.125 22.75
Q24.2188 24.5625 21.4375 25.4688
Q18.6562 26.375 16.2656 28.125
Q13.875 29.8906 12.625 32.3281
Q11.375 34.7656 11.375 37.7969
Q11.375 44.3906 17.1406 48.2344
Q22.9062 52.0938 32.4219 52.0938
Q38.5781 52.0938 46.0938 50
z
" id="AndaleMono-73"/>
      <path d="
M50.2031 2.29688
Q42.5312 -1.21875 35.1094 -1.21875
Q21.4844 -1.21875 21.4844 13.1875
L21.4844 44.2812
L11.7188 44.2812
L11.7188 50.875
L21.4844 50.875
L21.4844 64.7969
L28.9062 64.7969
L28.9062 50.875
L46.1875 50.875
L46.1875 44.2812
L28.9062 44.2812
L28.9062 15.1875
Q28.9062 10.5469 30.9531 7.98438
Q33.0156 5.42188 36.5312 5.42188
Q42.7812 5.42188 48.875 8.20312
z
" id="AndaleMono-74"/>
      <path d="
M46.7812 -10.2031
L43.7969 -14.4062
Q32.9062 -6.15625 27.1875 4.78125
Q21.4844 15.7188 21.4844 27.875
Q21.4844 40.1406 27.1406 51
Q32.8125 61.8594 43.7969 70.125
L46.7812 65.9219
Q37.8438 57.9062 33.9062 49.1406
Q29.9844 40.375 29.9844 27.9844
Q29.9844 15.1406 34.0625 6.375
Q38.1406 -2.39062 46.7812 -10.2031" id="AndaleMono-28"/>
      <path d="
M51.2188 25.2031
L16.3125 25.2031
Q16.3125 16.5469 21.3125 10.9375
Q26.3125 5.32812 33.5938 5.32812
Q40.5312 5.32812 47.9062 7.8125
L49.2188 1.70312
Q42.4844 -1.3125 33.5 -1.3125
Q22.1719 -1.3125 15.2344 5.95312
Q8.29688 13.2344 8.29688 25.5938
Q8.29688 37.7031 14.5156 44.8906
Q20.75 52.0938 30.6094 52.0938
Q39.4062 52.0938 45.3125 45.4062
Q51.2188 38.7188 51.2188 27.5938
z

M42.9219 31.3906
Q42.9219 37.3594 39.2031 41.4375
Q35.5 45.5156 30.9062 45.5156
Q25 45.5156 21.1094 41.6094
Q17.2344 37.7031 16.7969 31.3906
z
" id="AndaleMono-65"/>
      <path d="
M33.2969 70.125
Q35.4531 70.125 36.9688 68.5781
Q38.4844 67.0469 38.4844 64.8906
Q38.4844 62.6406 36.9844 61.125
Q35.5 59.625 33.2969 59.625
Q31.2969 59.625 29.75 61.2031
Q28.2188 62.7969 28.2188 64.8906
Q28.2188 67 29.75 68.5625
Q31.2969 70.125 33.2969 70.125
M37.0156 0
L29.3906 0
L29.3906 44.2812
L14.4062 44.2812
L14.4062 50.875
L37.0156 50.875
z
" id="AndaleMono-69"/>
      <path id="AndaleMono-20"/>
      <path d="
M29.9844 52.0938
Q40.4844 52.0938 46.6719 44.7656
Q52.875 37.4531 52.875 25.4844
Q52.875 13.4219 46.6719 6.04688
Q40.4844 -1.3125 29.9844 -1.3125
Q19.4375 -1.3125 13.25 6.03125
Q7.07812 13.375 7.07812 25.4844
Q7.07812 37.5 13.2812 44.7969
Q19.4844 52.0938 29.9844 52.0938
M29.9844 5.32812
Q36.9219 5.32812 40.9219 11.1875
Q44.9219 17.0469 44.9219 25.3906
Q44.9219 34.1875 40.9688 39.8438
Q37.0156 45.5156 29.9844 45.5156
Q22.9062 45.5156 19 39.9219
Q15.0938 34.3281 15.0938 25.3906
Q15.0938 16.8906 19.0469 11.1094
Q23 5.32812 29.9844 5.32812" id="AndaleMono-6f"/>
      <path d="
M53.7188 0
L46.0938 0
L46.0938 33.4062
Q46.0938 45.5156 41.6094 45.5156
Q39.3125 45.5156 36.5469 41.3281
Q33.7969 37.1562 33.7969 36.7188
L33.7969 0
L26.2188 0
L26.2188 33.4062
Q26.2188 45.5156 21.6875 45.5156
Q19.4375 45.5156 16.6719 41.3281
Q13.9219 37.1562 13.9219 36.7188
L13.9219 0
L6.29688 0
L6.29688 50.875
L13.625 50.875
L13.625 43.2188
Q15.7656 47.2656 18.7188 49.6719
Q21.6875 52.0938 24.6094 52.0938
Q27.6875 52.0938 30.125 49.6719
Q32.5625 47.2656 33.5 43.2188
Q35.6406 47.2656 38.625 49.6719
Q41.6094 52.0938 44.4844 52.0938
Q53.7188 52.0938 53.7188 35.5938
z
" id="AndaleMono-6d"/>
      <path d="
M49.7031 0
L42.0938 0
L42.0938 32.625
Q42.0938 39.4062 39.9219 42.4531
Q37.75 45.5156 33.1094 45.5156
Q26.125 45.5156 18.1094 36.8125
L18.1094 0
L10.5 0
L10.5 50.875
L18.1094 50.875
L18.1094 43.4062
Q26.3125 52.0938 35.4062 52.0938
Q49.7031 52.0938 49.7031 34.8125
z
" id="AndaleMono-6e"/>
      <path d="
M16.2188 70.125
Q27.1562 61.8594 32.8125 51
Q38.4844 40.1406 38.4844 27.875
Q38.4844 15.7188 32.7812 4.78125
Q27.0938 -6.15625 16.2188 -14.4062
L13.1875 -10.2031
Q22.125 -2.29688 26.0469 6.60938
Q29.9844 15.5312 29.9844 27.9844
Q29.9844 40.8281 25.9219 49.4688
Q21.875 58.1094 13.1875 65.9219
z
" id="AndaleMono-29"/>
      <path d="
M57.3281 0
L47.3125 0
L27.0938 31.2969
L18.2188 31.2969
L18.2188 0
L10.2031 0
L10.2031 68.8906
L29.6875 68.8906
Q39.5 68.8906 45.1875 64.125
Q50.875 59.375 50.875 50.875
Q50.875 44.5781 46.7188 39.6719
Q42.5781 34.7656 35.2969 33.0156
z

M18.2188 38.2812
L28.3281 38.2812
Q34.6719 38.2812 38.625 41.7188
Q42.5781 45.1719 42.5781 50.3906
Q42.5781 61.9219 28.5156 61.9219
L18.2188 61.9219
z
" id="AndaleMono-52"/>
     </defs>
     <g style="fill:#555555;" transform="translate(157.875 278.568125)scale(0.12 -0.12)">
      <use xlink:href="#AndaleMono-52"/>
      <use x="60.009765625" xlink:href="#AndaleMono-65"/>
      <use x="120.01953125" xlink:href="#AndaleMono-73"/>
      <use x="180.029296875" xlink:href="#AndaleMono-70"/>
      <use x="240.0390625" xlink:href="#AndaleMono-6f"/>
      <use x="300.048828125" xlink:href="#AndaleMono-6e"/>
      <use x="360.05859375" xlink:href="#AndaleMono-73"/>
      <use x="420.068359375" xlink:href="#AndaleMono-65"/>
      <use x="480.078125" xlink:href="#AndaleMono-20"/>
      <use x="540.087890625" xlink:href="#AndaleMono-74"/>
      <use x="600.09765625" xlink:href="#AndaleMono-69"/>
      <use x="660.107421875" xlink:href="#AndaleMono-6d"/>
      <use x="720.1171875" xlink:href="#AndaleMono-65"/>
      <use x="780.126953125" xlink:href="#AndaleMono-20"/>
      <use x="840.13671875" xlink:href="#AndaleMono-28"/>
      <use x="900.146484375" xlink:href="#AndaleMono-6d"/>
      <use x="960.15625" xlink:href="#AndaleMono-73"/>
      <use x="1020.16601562" xlink:href="#AndaleMono-29"/>
     </g>
    </g>
   </g>
   <g id="matplotlib.axis_2">
    <g id="ytick_1">
     <g id="line2d_19">
      <path clip-path="url(#p124b8dd147)" d="
M54 252
L388.8 252" style="fill:none;stroke:#000000;stroke-dasharray:1.000000,3.000000;stroke-dashoffset:0.0;stroke-linecap:butt;stroke-width:0.5;"/>
     </g>
     <g id="line2d_20">
      <g>
       <use style="fill:#555555;stroke:#555555;stroke-linecap:butt;stroke-width:0.5;" x="54.0" xlink:href="#md8e084be14" y="252.0"/>
      </g>
     </g>
     <g id="line2d_21">
      <g>
       <use style="fill:#555555;stroke:#555555;stroke-linecap:butt;stroke-width:0.5;" x="388.8" xlink:href="#md8e084be14" y="252.0"/>
      </g>
     </g>
     <g id="text_8">
      <!-- 0.00 -->
      <defs>
       <path d="
M29.6875 11.1875
Q32.2812 11.1875 34.0312 9.42188
Q35.7969 7.67188 35.7969 5.07812
Q35.7969 2.4375 34.0156 0.5625
Q32.2344 -1.3125 29.6875 -1.3125
Q27.2031 -1.3125 25.4375 0.5625
Q23.6875 2.4375 23.6875 5.07812
Q23.6875 7.71875 25.4219 9.45312
Q27.1562 11.1875 29.6875 11.1875" id="AndaleMono-2e"/>
      </defs>
      <g style="fill:#555555;" transform="translate(25.453125 255.4453125)scale(0.1 -0.1)">
       <use xlink:href="#AndaleMono-30"/>
       <use x="60.009765625" xlink:href="#AndaleMono-2e"/>
       <use x="120.01953125" xlink:href="#AndaleMono-30"/>
       <use x="180.029296875" xlink:href="#AndaleMono-30"/>
      </g>
     </g>
    </g>
    <g id="ytick_2">
     <g id="line2d_22">
      <path clip-path="url(#p124b8dd147)" d="
M54 224.1
L388.8 224.1" style="fill:none;stroke:#000000;stroke-dasharray:1.000000,3.000000;stroke-dashoffset:0.0;stroke-linecap:butt;stroke-width:0.5;"/>
     </g>
     <g id="line2d_23">
      <g>
       <use style="fill:#555555;stroke:#555555;stroke-linecap:butt;stroke-width:0.5;" x="54.0" xlink:href="#md8e084be14" y="224.1"/>
      </g>
     </g>
     <g id="line2d_24">
      <g>
       <use style="fill:#555555;stroke:#555555;stroke-linecap:butt;stroke-width:0.5;" x="388.8" xlink:href="#md8e084be14" y="224.1"/>
      </g>
     </g>
     <g id="text_9">
      <!-- 0.05 -->
      <g style="fill:#555555;" transform="translate(25.834375 227.5453125)scale(0.1 -0.1)">
       <use xlink:href="#AndaleMono-30"/>
       <use x="60.009765625" xlink:href="#AndaleMono-2e"/>
       <use x="120.01953125" xlink:href="#AndaleMono-30"/>
       <use x="180.029296875" xlink:href="#AndaleMono-35"/>
      </g>
     </g>
    </g>
    <g id="ytick_3">
     <g id="line2d_25">
      <path clip-path="url(#p124b8dd147)" d="
M54 196.2
L388.8 196.2" style="fill:none;stroke:#000000;stroke-dasharray:1.000000,3.000000;stroke-dashoffset:0.0;stroke-linecap:butt;stroke-width:0.5;"/>
     </g>
     <g id="line2d_26">
      <g>
       <use style="fill:#555555;stroke:#555555;stroke-linecap:butt;stroke-width:0.5;" x="54.0" xlink:href="#md8e084be14" y="196.2"/>
      </g>
     </g>
     <g id="line2d_27">
      <g>
       <use style="fill:#555555;stroke:#555555;stroke-linecap:butt;stroke-width:0.5;" x="388.8" xlink:href="#md8e084be14" y="196.2"/>
      </g>
     </g>
     <g id="text_10">
      <!-- 0.10 -->
      <g style="fill:#555555;" transform="translate(25.453125 199.6453125)scale(0.1 -0.1)">
       <use xlink:href="#AndaleMono-30"/>
       <use x="60.009765625" xlink:href="#AndaleMono-2e"/>
       <use x="120.01953125" xlink:href="#AndaleMono-31"/>
       <use x="180.029296875" xlink:href="#AndaleMono-30"/>
      </g>
     </g>
    </g>
    <g id="ytick_4">
     <g id="line2d_28">
      <path clip-path="url(#p124b8dd147)" d="
M54 168.3
L388.8 168.3" style="fill:none;stroke:#000000;stroke-dasharray:1.000000,3.000000;stroke-dashoffset:0.0;stroke-linecap:butt;stroke-width:0.5;"/>
     </g>
     <g id="line2d_29">
      <g>
       <use style="fill:#555555;stroke:#555555;stroke-linecap:butt;stroke-width:0.5;" x="54.0" xlink:href="#md8e084be14" y="168.3"/>
      </g>
     </g>
     <g id="line2d_30">
      <g>
       <use style="fill:#555555;stroke:#555555;stroke-linecap:butt;stroke-width:0.5;" x="388.8" xlink:href="#md8e084be14" y="168.3"/>
      </g>
     </g>
     <g id="text_11">
      <!-- 0.15 -->
      <g style="fill:#555555;" transform="translate(25.834375 171.7453125)scale(0.1 -0.1)">
       <use xlink:href="#AndaleMono-30"/>
       <use x="60.009765625" xlink:href="#AndaleMono-2e"/>
       <use x="120.01953125" xlink:href="#AndaleMono-31"/>
       <use x="180.029296875" xlink:href="#AndaleMono-35"/>
      </g>
     </g>
    </g>
    <g id="ytick_5">
     <g id="line2d_31">
      <path clip-path="url(#p124b8dd147)" d="
M54 140.4
L388.8 140.4" style="fill:none;stroke:#000000;stroke-dasharray:1.000000,3.000000;stroke-dashoffset:0.0;stroke-linecap:butt;stroke-width:0.5;"/>
     </g>
     <g id="line2d_32">
      <g>
       <use style="fill:#555555;stroke:#555555;stroke-linecap:butt;stroke-width:0.5;" x="54.0" xlink:href="#md8e084be14" y="140.4"/>
      </g>
     </g>
     <g id="line2d_33">
      <g>
       <use style="fill:#555555;stroke:#555555;stroke-linecap:butt;stroke-width:0.5;" x="388.8" xlink:href="#md8e084be14" y="140.4"/>
      </g>
     </g>
     <g id="text_12">
      <!-- 0.20 -->
      <g style="fill:#555555;" transform="translate(25.453125 143.8453125)scale(0.1 -0.1)">
       <use xlink:href="#AndaleMono-30"/>
       <use x="60.009765625" xlink:href="#AndaleMono-2e"/>
       <use x="120.01953125" xlink:href="#AndaleMono-32"/>
       <use x="180.029296875" xlink:href="#AndaleMono-30"/>
      </g>
     </g>
    </g>
    <g id="ytick_6">
     <g id="line2d_34">
      <path clip-path="url(#p124b8dd147)" d="
M54 112.5
L388.8 112.5" style="fill:none;stroke:#000000;stroke-dasharray:1.000000,3.000000;stroke-dashoffset:0.0;stroke-linecap:butt;stroke-width:0.5;"/>
     </g>
     <g id="line2d_35">
      <g>
       <use style="fill:#555555;stroke:#555555;stroke-linecap:butt;stroke-width:0.5;" x="54.0" xlink:href="#md8e084be14" y="112.5"/>
      </g>
     </g>
     <g id="line2d_36">
      <g>
       <use style="fill:#555555;stroke:#555555;stroke-linecap:butt;stroke-width:0.5;" x="388.8" xlink:href="#md8e084be14" y="112.5"/>
      </g>
     </g>
     <g id="text_13">
      <!-- 0.25 -->
      <g style="fill:#555555;" transform="translate(25.834375 115.9453125)scale(0.1 -0.1)">
       <use xlink:href="#AndaleMono-30"/>
       <use x="60.009765625" xlink:href="#AndaleMono-2e"/>
       <use x="120.01953125" xlink:href="#AndaleMono-32"/>
       <use x="180.029296875" xlink:href="#AndaleMono-35"/>
      </g>
     </g>
    </g>
    <g id="ytick_7">
     <g id="line2d_37">
      <path clip-path="url(#p124b8dd147)" d="
M54 84.6
L388.8 84.6" style="fill:none;stroke:#000000;stroke-dasharray:1.000000,3.000000;stroke-dashoffset:0.0;stroke-linecap:butt;stroke-width:0.5;"/>
     </g>
     <g id="line2d_38">
      <g>
       <use style="fill:#555555;stroke:#555555;stroke-linecap:butt;stroke-width:0.5;" x="54.0" xlink:href="#md8e084be14" y="84.6"/>
      </g>
     </g>
     <g id="line2d_39">
      <g>
       <use style="fill:#555555;stroke:#555555;stroke-linecap:butt;stroke-width:0.5;" x="388.8" xlink:href="#md8e084be14" y="84.6"/>
      </g>
     </g>
     <g id="text_14">
      <!-- 0.30 -->
      <g style="fill:#555555;" transform="translate(25.453125 88.0453125)scale(0.1 -0.1)">
       <use xlink:href="#AndaleMono-30"/>
       <use x="60.009765625" xlink:href="#AndaleMono-2e"/>
       <use x="120.01953125" xlink:href="#AndaleMono-33"/>
       <use x="180.029296875" xlink:href="#AndaleMono-30"/>
      </g>
     </g>
    </g>
    <g id="ytick_8">
     <g id="line2d_40">
      <path clip-path="url(#p124b8dd147)" d="
M54 56.7
L388.8 56.7" style="fill:none;stroke:#000000;stroke-dasharray:1.000000,3.000000;stroke-dashoffset:0.0;stroke-linecap:butt;stroke-width:0.5;"/>
     </g>
     <g id="line2d_41">
      <g>
       <use style="fill:#555555;stroke:#555555;stroke-linecap:butt;stroke-width:0.5;" x="54.0" xlink:href="#md8e084be14" y="56.7"/>
      </g>
     </g>
     <g id="line2d_42">
      <g>
       <use style="fill:#555555;stroke:#555555;stroke-linecap:butt;stroke-width:0.5;" x="388.8" xlink:href="#md8e084be14" y="56.7"/>
      </g>
     </g>
     <g id="text_15">
      <!-- 0.35 -->
      <g style="fill:#555555;" transform="translate(25.834375 60.1453125)scale(0.1 -0.1)">
       <use xlink:href="#AndaleMono-30"/>
       <use x="60.009765625" xlink:href="#AndaleMono-2e"/>
       <use x="120.01953125" xlink:href="#AndaleMono-33"/>
       <use x="180.029296875" xlink:href="#AndaleMono-35"/>
      </g>
     </g>
    </g>
    <g id="ytick_9">
     <g id="line2d_43">
      <path clip-path="url(#p124b8dd147)" d="
M54 28.8
L388.8 28.8" style="fill:none;stroke:#000000;stroke-dasharray:1.000000,3.000000;stroke-dashoffset:0.0;stroke-linecap:butt;stroke-width:0.5;"/>
     </g>
     <g id="line2d_44">
      <g>
       <use style="fill:#555555;stroke:#555555;stroke-linecap:butt;stroke-width:0.5;" x="54.0" xlink:href="#md8e084be14" y="28.8"/>
      </g>
     </g>
     <g id="line2d_45">
      <g>
       <use style="fill:#555555;stroke:#555555;stroke-linecap:butt;stroke-width:0.5;" x="388.8" xlink:href="#md8e084be14" y="28.8"/>
      </g>
     </g>
     <g id="text_16">
      <!-- 0.40 -->
      <g style="fill:#555555;" transform="translate(25.453125 32.2453125)scale(0.1 -0.1)">
       <use xlink:href="#AndaleMono-30"/>
       <use x="60.009765625" xlink:href="#AndaleMono-2e"/>
       <use x="120.01953125" xlink:href="#AndaleMono-34"/>
       <use x="180.029296875" xlink:href="#AndaleMono-30"/>
      </g>
     </g>
    </g>
    <g id="text_17">
     <!-- Normalized count -->
     <defs>
      <path d="
M49.5156 1.70312
Q42.875 -1.3125 34.9062 -1.3125
Q22.9062 -1.3125 15.75 5.98438
Q8.59375 13.2812 8.59375 25.3906
Q8.59375 37.5 15.7969 44.7969
Q23 52.0938 34.7188 52.0938
Q42.3906 52.0938 49.3125 49.4219
L47.3125 43.1094
Q40.375 45.5156 34.8125 45.5156
Q26.4219 45.5156 21.5156 40.0938
Q16.6094 34.6719 16.6094 25.3906
Q16.6094 16.8906 21.6875 11.1094
Q26.7656 5.32812 34.9062 5.32812
Q41.3594 5.32812 48.1875 7.8125
z
" id="AndaleMono-63"/>
      <path d="
M50.9844 0
L43.4062 0
Q42.4844 3.07812 42.4844 8.20312
Q35.9844 -1.3125 24.8125 -1.3125
Q19.1406 -1.3125 14.8125 2.70312
Q10.5 6.73438 10.5 13.0938
Q10.5 16.8438 12.0156 19.7188
Q13.5312 22.6094 16.4531 24.5781
Q19.3906 26.5625 23.5781 27.7031
Q27.7812 28.8594 33.5469 29.2969
L42.0938 29.9844
L42.0938 32.4219
Q42.0938 45.5156 29.8906 45.5156
Q27 45.5156 22.5781 44.2656
Q18.1719 43.0156 14.9844 41.3125
L12.9844 46.7812
Q23.3906 52.0938 32.3281 52.0938
Q49.7031 52.0938 49.7031 33.6875
L49.7031 11.8125
Q49.7031 5.17188 50.9844 0
M42.0938 15.0938
L42.0938 24.3125
Q31.7812 23.3906 27.9531 22.5781
Q24.125 21.7812 21.3125 19.5781
Q18.5 17.3906 18.5 13.625
Q18.5 10.2031 20.8906 8.09375
Q23.2969 6 27 6
Q31.0625 6 35.0625 8.42188
Q39.0625 10.8438 42.0938 15.0938" id="AndaleMono-61"/>
      <path d="
M49.6094 0
L42 0
L42 7.51562
Q33.7969 -1.21875 24.7031 -1.21875
Q10.4062 -1.21875 10.4062 16.1094
L10.4062 50.875
L18.0156 50.875
L18.0156 18.3125
Q18.0156 11.8125 20.0625 8.60938
Q22.125 5.42188 27 5.42188
Q33.9844 5.42188 42 14.1094
L42 50.875
L49.6094 50.875
z
" id="AndaleMono-75"/>
      <path d="
M49.5156 0
L41.8906 0
L41.8906 7.32812
Q39.5469 3.5625 35.1719 1.125
Q30.8125 -1.3125 25.9844 -1.3125
Q17.2344 -1.3125 12.1562 6.46875
Q7.07812 14.2656 7.07812 26.2188
Q7.07812 37.4062 12.375 44.75
Q17.6719 52.0938 26.4219 52.0938
Q36.0312 52.0938 41.8906 44.2812
L41.8906 68.8906
L49.5156 68.8906
z

M41.8906 15.5781
L41.8906 36.7188
Q36.4219 45.5156 28.7188 45.5156
Q22.4062 45.5156 18.75 39.9219
Q15.0938 34.3281 15.0938 25.7812
Q15.0938 17 18.5312 11.25
Q21.9688 5.51562 27.9844 5.51562
Q30.8594 5.51562 33.7812 7.07812
Q36.7188 8.64062 39.2969 11.7656
Q41.8906 14.8906 41.8906 15.5781" id="AndaleMono-64"/>
      <path d="
M50.7812 0
L41.8906 0
L17.1875 54.3906
L17.1875 0
L9.1875 0
L9.1875 68.8906
L18.1094 68.8906
L42.9219 14.9844
L42.9219 68.8906
L50.7812 68.8906
z
" id="AndaleMono-4e"/>
      <path d="
M49.0312 0
L9.90625 0
L9.90625 4.10938
L38.9219 44.1875
L10.5938 44.1875
L10.5938 50.875
L49.0312 50.875
L49.0312 47.125
L20.0156 6.6875
L49.0312 6.6875
z
" id="AndaleMono-7a"/>
      <path d="
M46 0
L25.2031 0
L25.2031 62.3125
L11.9219 62.3125
L11.9219 68.8906
L32.8125 68.8906
L32.8125 6.59375
L46 6.59375
z
" id="AndaleMono-6c"/>
      <path d="
M50.4844 49.5156
L47.4062 42.1875
Q42.3906 44.3906 38.7188 44.3906
Q35.3594 44.3906 32.125 42.4531
Q28.9062 40.5312 26.1875 36.9375
Q23.4844 33.3438 23.4844 32.9062
L23.4844 0
L15.9219 0
L15.9219 50.875
L23.4844 50.875
L23.4844 40.5781
Q29.5938 52.0938 39.3125 52.0938
Q45.0625 52.0938 50.4844 49.5156" id="AndaleMono-72"/>
     </defs>
     <g style="fill:#555555;" transform="translate(20.453125 197.26875)rotate(-90.0)scale(0.12 -0.12)">
      <use xlink:href="#AndaleMono-4e"/>
      <use x="60.009765625" xlink:href="#AndaleMono-6f"/>
      <use x="120.01953125" xlink:href="#AndaleMono-72"/>
      <use x="180.029296875" xlink:href="#AndaleMono-6d"/>
      <use x="240.0390625" xlink:href="#AndaleMono-61"/>
      <use x="300.048828125" xlink:href="#AndaleMono-6c"/>
      <use x="360.05859375" xlink:href="#AndaleMono-69"/>
      <use x="420.068359375" xlink:href="#AndaleMono-7a"/>
      <use x="480.078125" xlink:href="#AndaleMono-65"/>
      <use x="540.087890625" xlink:href="#AndaleMono-64"/>
      <use x="600.09765625" xlink:href="#AndaleMono-20"/>
      <use x="660.107421875" xlink:href="#AndaleMono-63"/>
      <use x="720.1171875" xlink:href="#AndaleMono-6f"/>
      <use x="780.126953125" xlink:href="#AndaleMono-75"/>
      <use x="840.13671875" xlink:href="#AndaleMono-6e"/>
      <use x="900.146484375" xlink:href="#AndaleMono-74"/>
     </g>
    </g>
   </g>
   <g id="patch_3">
    <path clip-path="url(#p124b8dd147)" d="
M54.6696 252
L65.785 252
L65.785 230.606
L54.6696 230.606
z
" style="fill:#348abd;opacity:0.7;stroke:#eeeeee;stroke-width:0.5;"/>
   </g>
   <g id="patch_4">
    <path clip-path="url(#p124b8dd147)" d="
M65.785 252
L76.9003 252
L76.9003 250.76
L65.785 250.76
z
" style="fill:#348abd;opacity:0.7;stroke:#eeeeee;stroke-width:0.5;"/>
   </g>
   <g id="patch_5">
    <path clip-path="url(#p124b8dd147)" d="
M76.9003 252
L88.0157 252
L88.0157 251.538
L76.9003 251.538
z
" style="fill:#348abd;opacity:0.7;stroke:#eeeeee;stroke-width:0.5;"/>
   </g>
   <g id="patch_6">
    <path clip-path="url(#p124b8dd147)" d="
M88.0157 252
L99.131 252
L99.131 251.874
L88.0157 251.874
z
" style="fill:#348abd;opacity:0.7;stroke:#eeeeee;stroke-width:0.5;"/>
   </g>
   <g id="patch_7">
    <path clip-path="url(#p124b8dd147)" d="
M99.131 252
L110.246 252
L110.246 251.979
L99.131 251.979
z
" style="fill:#348abd;opacity:0.7;stroke:#eeeeee;stroke-width:0.5;"/>
   </g>
   <g id="patch_8">
    <path clip-path="url(#p124b8dd147)" d="
M110.246 252
L121.362 252
L121.362 251.874
L110.246 251.874
z
" style="fill:#348abd;opacity:0.7;stroke:#eeeeee;stroke-width:0.5;"/>
   </g>
   <g id="patch_9">
    <path clip-path="url(#p124b8dd147)" d="
M121.362 252
L132.477 252
L132.477 248.301
L121.362 248.301
z
" style="fill:#348abd;opacity:0.7;stroke:#eeeeee;stroke-width:0.5;"/>
   </g>
   <g id="patch_10">
    <path clip-path="url(#p124b8dd147)" d="
M132.477 252
L143.592 252
L143.592 214.885
L132.477 214.885
z
" style="fill:#348abd;opacity:0.7;stroke:#eeeeee;stroke-width:0.5;"/>
   </g>
   <g id="patch_11">
    <path clip-path="url(#p124b8dd147)" d="
M143.592 252
L154.708 252
L154.708 31.0992
L143.592 31.0992
z
" style="fill:#348abd;opacity:0.7;stroke:#eeeeee;stroke-width:0.5;"/>
   </g>
   <g id="patch_12">
    <path clip-path="url(#p124b8dd147)" d="
M154.708 252
L165.823 252
L165.823 158.037
L154.708 158.037
z
" style="fill:#348abd;opacity:0.7;stroke:#eeeeee;stroke-width:0.5;"/>
   </g>
   <g id="patch_13">
    <path clip-path="url(#p124b8dd147)" d="
M165.823 252
L176.939 252
L176.939 213.351
L165.823 213.351
z
" style="fill:#348abd;opacity:0.7;stroke:#eeeeee;stroke-width:0.5;"/>
   </g>
   <g id="patch_14">
    <path clip-path="url(#p124b8dd147)" d="
M176.939 252
L188.054 252
L188.054 221.064
L176.939 221.064
z
" style="fill:#348abd;opacity:0.7;stroke:#eeeeee;stroke-width:0.5;"/>
   </g>
   <g id="patch_15">
    <path clip-path="url(#p124b8dd147)" d="
M188.054 252
L199.169 252
L199.169 236.889
L188.054 236.889
z
" style="fill:#348abd;opacity:0.7;stroke:#eeeeee;stroke-width:0.5;"/>
   </g>
   <g id="patch_16">
    <path clip-path="url(#p124b8dd147)" d="
M199.169 252
L210.285 252
L210.285 237.73
L199.169 237.73
z
" style="fill:#348abd;opacity:0.7;stroke:#eeeeee;stroke-width:0.5;"/>
   </g>
   <g id="patch_17">
    <path clip-path="url(#p124b8dd147)" d="
M210.285 252
L221.4 252
L221.4 240.567
L210.285 240.567
z
" style="fill:#348abd;opacity:0.7;stroke:#eeeeee;stroke-width:0.5;"/>
   </g>
   <g id="patch_18">
    <path clip-path="url(#p124b8dd147)" d="
M221.4 252
L232.515 252
L232.515 242.501
L221.4 242.501
z
" style="fill:#348abd;opacity:0.7;stroke:#eeeeee;stroke-width:0.5;"/>
   </g>
   <g id="patch_19">
    <path clip-path="url(#p124b8dd147)" d="
M232.515 252
L243.631 252
L243.631 242.312
L232.515 242.312
z
" style="fill:#348abd;opacity:0.7;stroke:#eeeeee;stroke-width:0.5;"/>
   </g>
   <g id="patch_20">
    <path clip-path="url(#p124b8dd147)" d="
M243.631 252
L254.746 252
L254.746 244.56
L243.631 244.56
z
" style="fill:#348abd;opacity:0.7;stroke:#eeeeee;stroke-width:0.5;"/>
   </g>
   <g id="patch_21">
    <path clip-path="url(#p124b8dd147)" d="
M254.746 252
L265.861 252
L265.861 245.59
L254.746 245.59
z
" style="fill:#348abd;opacity:0.7;stroke:#eeeeee;stroke-width:0.5;"/>
   </g>
   <g id="patch_22">
    <path clip-path="url(#p124b8dd147)" d="
M265.861 252
L276.977 252
L276.977 246.914
L265.861 246.914
z
" style="fill:#348abd;opacity:0.7;stroke:#eeeeee;stroke-width:0.5;"/>
   </g>
   <g id="patch_23">
    <path clip-path="url(#p124b8dd147)" d="
M276.977 252
L288.092 252
L288.092 247.124
L276.977 247.124
z
" style="fill:#348abd;opacity:0.7;stroke:#eeeeee;stroke-width:0.5;"/>
   </g>
   <g id="patch_24">
    <path clip-path="url(#p124b8dd147)" d="
M288.092 252
L299.208 252
L299.208 247.545
L288.092 247.545
z
" style="fill:#348abd;opacity:0.7;stroke:#eeeeee;stroke-width:0.5;"/>
   </g>
   <g id="patch_25">
    <path clip-path="url(#p124b8dd147)" d="
M299.208 252
L310.323 252
L310.323 249.184
L299.208 249.184
z
" style="fill:#348abd;opacity:0.7;stroke:#eeeeee;stroke-width:0.5;"/>
   </g>
   <g id="patch_26">
    <path clip-path="url(#p124b8dd147)" d="
M310.323 252
L321.438 252
L321.438 248.133
L310.323 248.133
z
" style="fill:#348abd;opacity:0.7;stroke:#eeeeee;stroke-width:0.5;"/>
   </g>
   <g id="patch_27">
    <path clip-path="url(#p124b8dd147)" d="
M321.438 252
L332.554 252
L332.554 249.268
L321.438 249.268
z
" style="fill:#348abd;opacity:0.7;stroke:#eeeeee;stroke-width:0.5;"/>
   </g>
   <g id="patch_28">
    <path clip-path="url(#p124b8dd147)" d="
M332.554 252
L343.669 252
L343.669 249.226
L332.554 249.226
z
" style="fill:#348abd;opacity:0.7;stroke:#eeeeee;stroke-width:0.5;"/>
   </g>
   <g id="patch_29">
    <path clip-path="url(#p124b8dd147)" d="
M343.669 252
L354.784 252
L354.784 249.268
L343.669 249.268
z
" style="fill:#348abd;opacity:0.7;stroke:#eeeeee;stroke-width:0.5;"/>
   </g>
   <g id="patch_30">
    <path clip-path="url(#p124b8dd147)" d="
M354.784 252
L365.9 252
L365.9 249.646
L354.784 249.646
z
" style="fill:#348abd;opacity:0.7;stroke:#eeeeee;stroke-width:0.5;"/>
   </g>
   <g id="patch_31">
    <path clip-path="url(#p124b8dd147)" d="
M365.9 252
L377.015 252
L377.015 250.13
L365.9 250.13
z
" style="fill:#348abd;opacity:0.7;stroke:#eeeeee;stroke-width:0.5;"/>
   </g>
   <g id="patch_32">
    <path clip-path="url(#p124b8dd147)" d="
M377.015 252
L388.13 252
L388.13 250.045
L377.015 250.045
z
" style="fill:#348abd;opacity:0.7;stroke:#eeeeee;stroke-width:0.5;"/>
   </g>
   <g id="patch_33">
    <path clip-path="url(#p124b8dd147)" d="
M61.3656 252
L72.2354 252
L72.2354 240.475
L61.3656 240.475
z
" style="fill:#f08080;opacity:0.7;stroke:#eeeeee;stroke-width:0.5;"/>
   </g>
   <g id="patch_34">
    <path clip-path="url(#p124b8dd147)" d="
M72.2354 252
L83.1053 252
L83.1053 190.815
L72.2354 190.815
z
" style="fill:#f08080;opacity:0.7;stroke:#eeeeee;stroke-width:0.5;"/>
   </g>
   <g id="patch_35">
    <path clip-path="url(#p124b8dd147)" d="
M83.1053 252
L93.9751 252
L93.9751 188.719
L83.1053 188.719
z
" style="fill:#f08080;opacity:0.7;stroke:#eeeeee;stroke-width:0.5;"/>
   </g>
   <g id="patch_36">
    <path clip-path="url(#p124b8dd147)" d="
M93.9751 252
L104.845 252
L104.845 208.207
L93.9751 208.207
z
" style="fill:#f08080;opacity:0.7;stroke:#eeeeee;stroke-width:0.5;"/>
   </g>
   <g id="patch_37">
    <path clip-path="url(#p124b8dd147)" d="
M104.845 252
L115.715 252
L115.715 220.36
L104.845 220.36
z
" style="fill:#f08080;opacity:0.7;stroke:#eeeeee;stroke-width:0.5;"/>
   </g>
   <g id="patch_38">
    <path clip-path="url(#p124b8dd147)" d="
M115.715 252
L126.585 252
L126.585 227.275
L115.715 227.275
z
" style="fill:#f08080;opacity:0.7;stroke:#eeeeee;stroke-width:0.5;"/>
   </g>
   <g id="patch_39">
    <path clip-path="url(#p124b8dd147)" d="
M126.585 252
L137.454 252
L137.454 233.561
L126.585 233.561
z
" style="fill:#f08080;opacity:0.7;stroke:#eeeeee;stroke-width:0.5;"/>
   </g>
   <g id="patch_40">
    <path clip-path="url(#p124b8dd147)" d="
M137.454 252
L148.324 252
L148.324 233.351
L137.454 233.351
z
" style="fill:#f08080;opacity:0.7;stroke:#eeeeee;stroke-width:0.5;"/>
   </g>
   <g id="patch_41">
    <path clip-path="url(#p124b8dd147)" d="
M148.324 252
L159.194 252
L159.194 231.046
L148.324 231.046
z
" style="fill:#f08080;opacity:0.7;stroke:#eeeeee;stroke-width:0.5;"/>
   </g>
   <g id="patch_42">
    <path clip-path="url(#p124b8dd147)" d="
M159.194 252
L170.064 252
L170.064 233.561
L159.194 233.561
z
" style="fill:#f08080;opacity:0.7;stroke:#eeeeee;stroke-width:0.5;"/>
   </g>
   <g id="patch_43">
    <path clip-path="url(#p124b8dd147)" d="
M170.064 252
L180.934 252
L180.934 230.418
L170.064 230.418
z
" style="fill:#f08080;opacity:0.7;stroke:#eeeeee;stroke-width:0.5;"/>
   </g>
   <g id="patch_44">
    <path clip-path="url(#p124b8dd147)" d="
M180.934 252
L191.804 252
L191.804 227.484
L180.934 227.484
z
" style="fill:#f08080;opacity:0.7;stroke:#eeeeee;stroke-width:0.5;"/>
   </g>
   <g id="patch_45">
    <path clip-path="url(#p124b8dd147)" d="
M191.804 252
L202.674 252
L202.674 229.998
L191.804 229.998
z
" style="fill:#f08080;opacity:0.7;stroke:#eeeeee;stroke-width:0.5;"/>
   </g>
   <g id="patch_46">
    <path clip-path="url(#p124b8dd147)" d="
M202.674 252
L213.543 252
L213.543 235.027
L202.674 235.027
z
" style="fill:#f08080;opacity:0.7;stroke:#eeeeee;stroke-width:0.5;"/>
   </g>
   <g id="patch_47">
    <path clip-path="url(#p124b8dd147)" d="
M213.543 252
L224.413 252
L224.413 236.494
L213.543 236.494
z
" style="fill:#f08080;opacity:0.7;stroke:#eeeeee;stroke-width:0.5;"/>
   </g>
   <g id="patch_48">
    <path clip-path="url(#p124b8dd147)" d="
M224.413 252
L235.283 252
L235.283 237.542
L224.413 237.542
z
" style="fill:#f08080;opacity:0.7;stroke:#eeeeee;stroke-width:0.5;"/>
   </g>
   <g id="patch_49">
    <path clip-path="url(#p124b8dd147)" d="
M235.283 252
L246.153 252
L246.153 236.494
L235.283 236.494
z
" style="fill:#f08080;opacity:0.7;stroke:#eeeeee;stroke-width:0.5;"/>
   </g>
   <g id="patch_50">
    <path clip-path="url(#p124b8dd147)" d="
M246.153 252
L257.023 252
L257.023 231.675
L246.153 231.675
z
" style="fill:#f08080;opacity:0.7;stroke:#eeeeee;stroke-width:0.5;"/>
   </g>
   <g id="patch_51">
    <path clip-path="url(#p124b8dd147)" d="
M257.023 252
L267.893 252
L267.893 235.656
L257.023 235.656
z
" style="fill:#f08080;opacity:0.7;stroke:#eeeeee;stroke-width:0.5;"/>
   </g>
   <g id="patch_52">
    <path clip-path="url(#p124b8dd147)" d="
M267.893 252
L278.762 252
L278.762 238.799
L267.893 238.799
z
" style="fill:#f08080;opacity:0.7;stroke:#eeeeee;stroke-width:0.5;"/>
   </g>
   <g id="patch_53">
    <path clip-path="url(#p124b8dd147)" d="
M278.762 252
L289.632 252
L289.632 242.571
L278.762 242.571
z
" style="fill:#f08080;opacity:0.7;stroke:#eeeeee;stroke-width:0.5;"/>
   </g>
   <g id="patch_54">
    <path clip-path="url(#p124b8dd147)" d="
M289.632 252
L300.502 252
L300.502 240.475
L289.632 240.475
z
" style="fill:#f08080;opacity:0.7;stroke:#eeeeee;stroke-width:0.5;"/>
   </g>
   <g id="patch_55">
    <path clip-path="url(#p124b8dd147)" d="
M300.502 252
L311.372 252
L311.372 243.618
L300.502 243.618
z
" style="fill:#f08080;opacity:0.7;stroke:#eeeeee;stroke-width:0.5;"/>
   </g>
   <g id="patch_56">
    <path clip-path="url(#p124b8dd147)" d="
M311.372 252
L322.242 252
L322.242 245.923
L311.372 245.923
z
" style="fill:#f08080;opacity:0.7;stroke:#eeeeee;stroke-width:0.5;"/>
   </g>
   <g id="patch_57">
    <path clip-path="url(#p124b8dd147)" d="
M322.242 252
L333.112 252
L333.112 245.295
L322.242 245.295
z
" style="fill:#f08080;opacity:0.7;stroke:#eeeeee;stroke-width:0.5;"/>
   </g>
   <g id="patch_58">
    <path clip-path="url(#p124b8dd147)" d="
M333.112 252
L343.981 252
L343.981 246.342
L333.112 246.342
z
" style="fill:#f08080;opacity:0.7;stroke:#eeeeee;stroke-width:0.5;"/>
   </g>
   <g id="patch_59">
    <path clip-path="url(#p124b8dd147)" d="
M343.981 252
L354.851 252
L354.851 245.504
L343.981 245.504
z
" style="fill:#f08080;opacity:0.7;stroke:#eeeeee;stroke-width:0.5;"/>
   </g>
   <g id="patch_60">
    <path clip-path="url(#p124b8dd147)" d="
M354.851 252
L365.721 252
L365.721 247.6
L354.851 247.6
z
" style="fill:#f08080;opacity:0.7;stroke:#eeeeee;stroke-width:0.5;"/>
   </g>
   <g id="patch_61">
    <path clip-path="url(#p124b8dd147)" d="
M365.721 252
L376.591 252
L376.591 249.276
L365.721 249.276
z
" style="fill:#f08080;opacity:0.7;stroke:#eeeeee;stroke-width:0.5;"/>
   </g>
   <g id="patch_62">
    <path clip-path="url(#p124b8dd147)" d="
M376.591 252
L387.461 252
L387.461 248.438
L376.591 248.438
z
" style="fill:#f08080;opacity:0.7;stroke:#eeeeee;stroke-width:0.5;"/>
   </g>
   <g id="patch_63">
    <path d="
M54 28.8
L388.8 28.8" style="fill:none;stroke:#bcbcbc;"/>
   </g>
   <g id="patch_64">
    <path d="
M388.8 252
L388.8 28.8" style="fill:none;stroke:#bcbcbc;"/>
   </g>
   <g id="patch_65">
    <path d="
M54 252
L388.8 252" style="fill:none;stroke:#bcbcbc;"/>
   </g>
   <g id="patch_66">
    <path d="
M54 252
L54 28.8" style="fill:none;stroke:#bcbcbc;"/>
   </g>
   <g id="legend_1">
    <g id="patch_67">
     <path d="
M250.422 72.03
L380.4 72.03
Q382.8 72.03 382.8 69.63
L382.8 37.2
Q382.8 34.8 380.4 34.8
L250.422 34.8
Q248.022 34.8 248.022 37.2
L248.022 69.63
Q248.022 72.03 250.422 72.03
z
" style="fill:#eeeeee;stroke:#bcbcbc;stroke-width:0.5;"/>
    </g>
    <g id="patch_68">
     <path d="
M252.822 48
L276.822 48
L276.822 39.6
L252.822 39.6
z
" style="fill:#348abd;opacity:0.7;stroke:#eeeeee;stroke-width:0.5;"/>
    </g>
    <g id="text_18">
     <!-- before -->
     <defs>
      <path d="
M18.1094 44.2812
Q20.6562 47.7969 24.9688 49.9375
Q29.2969 52.0938 34.0781 52.0938
Q42.9688 52.0938 47.9219 44.9688
Q52.875 37.8438 52.875 26.2188
Q52.875 14.4531 47.5938 6.5625
Q42.3281 -1.3125 33.5 -1.3125
Q28.7656 -1.3125 24.6406 1.04688
Q20.5156 3.42188 18.1094 7.32812
L18.1094 0
L10.5 0
L10.5 68.8906
L18.1094 68.8906
z

M18.1094 36.7188
L18.1094 15.5781
Q20.2656 11.2812 23.9219 8.39062
Q27.5938 5.51562 31.5 5.51562
Q37.6406 5.51562 41.2812 11.375
Q44.9219 17.2344 44.9219 25.7812
Q44.9219 34.5781 41.4531 40.0469
Q37.9844 45.5156 31.7812 45.5156
Q23.7344 45.5156 18.1094 36.7188" id="AndaleMono-62"/>
      <path d="
M50.2031 68.1094
L48.1875 61.9219
Q42.7812 63.4844 38.4844 63.4844
Q34.375 63.4844 32.8281 61.1562
Q31.2969 58.8438 31.2969 51.8125
L31.2969 50.875
L48.3906 50.875
L48.3906 44.2812
L31.2969 44.2812
L31.2969 0
L23.6875 0
L23.6875 44.2812
L10.8906 44.2812
L10.8906 50.875
L23.6875 50.875
L23.6875 52.5938
Q23.6875 62.3125 27 66.2188
Q30.3281 70.125 38.4844 70.125
Q43.75 70.125 50.2031 68.1094" id="AndaleMono-66"/>
     </defs>
     <g transform="translate(286.421875 48.0)scale(0.12 -0.12)">
      <use xlink:href="#AndaleMono-62"/>
      <use x="60.009765625" xlink:href="#AndaleMono-65"/>
      <use x="120.01953125" xlink:href="#AndaleMono-66"/>
      <use x="180.029296875" xlink:href="#AndaleMono-6f"/>
      <use x="240.0390625" xlink:href="#AndaleMono-72"/>
      <use x="300.048828125" xlink:href="#AndaleMono-65"/>
     </g>
    </g>
    <g id="patch_69">
     <path d="
M252.822 64.815
L276.822 64.815
L276.822 56.415
L252.822 56.415
z
" style="fill:#f08080;opacity:0.7;stroke:#eeeeee;stroke-width:0.5;"/>
    </g>
    <g id="text_19">
     <!-- response (ms) -->
     <g transform="translate(286.421875 64.815)scale(0.12 -0.12)">
      <use xlink:href="#AndaleMono-72"/>
      <use x="60.009765625" xlink:href="#AndaleMono-65"/>
      <use x="120.01953125" xlink:href="#AndaleMono-73"/>
      <use x="180.029296875" xlink:href="#AndaleMono-70"/>
      <use x="240.0390625" xlink:href="#AndaleMono-6f"/>
      <use x="300.048828125" xlink:href="#AndaleMono-6e"/>
      <use x="360.05859375" xlink:href="#AndaleMono-73"/>
      <use x="420.068359375" xlink:href="#AndaleMono-65"/>
      <use x="480.078125" xlink:href="#AndaleMono-20"/>
      <use x="540.087890625" xlink:href="#AndaleMono-28"/>
      <use x="600.09765625" xlink:href="#AndaleMono-6d"/>
      <use x="660.107421875" xlink:href="#AndaleMono-73"/>
      <use x="720.1171875" xlink:href="#AndaleMono-29"/>
     </g>
    </g>
   </g>
  </g>
 </g>
 <defs>
  <clipPath id="p124b8dd147">
   <rect height="223.2" width="334.8" x="54.0" y="28.8"/>
  </clipPath>
 </defs>
</svg>
